<?xml version="1.0" encoding="UTF-8"?>
<svg xmlns="http://www.w3.org/2000/svg" xmlns:xlink="http://www.w3.org/1999/xlink" width="375pt" height="374.999991pt" viewBox="0 0 375 374.999991" version="1.2">
<g id="surface1">
<path style=" stroke:none;fill-rule:nonzero;fill:rgb(14.118958%,21.569824%,61.569214%);fill-opacity:1;" d="M 172.601562 110.246094 L 211.414062 71.683594 C 217.511719 65.648438 217.550781 55.804688 211.515625 49.707031 C 205.464844 43.632812 195.625 43.589844 189.550781 49.625 L 150.714844 88.191406 C 144.621094 94.226562 144.601562 104.070312 150.636719 110.164062 C 156.667969 116.242188 166.507812 116.28125 172.601562 110.246094 "/>
<path style=" stroke:none;fill-rule:nonzero;fill:rgb(14.118958%,21.569824%,61.569214%);fill-opacity:1;" d="M 282.867188 121.628906 C 276.832031 115.53125 266.992188 115.492188 260.898438 121.546875 L 222.085938 160.09375 C 215.992188 166.148438 215.953125 175.992188 222.003906 182.066406 C 228.058594 188.164062 237.878906 188.203125 243.972656 182.148438 L 282.785156 143.605469 C 288.878906 137.550781 288.921875 127.726562 282.867188 121.628906 "/>
<path style=" stroke:none;fill-rule:nonzero;fill:rgb(14.118958%,21.569824%,61.569214%);fill-opacity:1;" d="M 259.277344 112.230469 L 219.777344 72.433594 L 173.292969 118.613281 L 184.042969 129.449219 C 183.921875 129.628906 183.800781 129.8125 183.636719 129.972656 C 153.734375 160.617188 123.847656 191.28125 93.882812 221.867188 C 93.054688 222.71875 91.636719 222.980469 90.503906 223.488281 C 88.597656 224.335938 86.269531 224.742188 84.914062 226.097656 C 66.710938 244.390625 48.714844 262.859375 30.550781 281.171875 C 28.246094 283.480469 27.859375 285.667969 29.257812 288.378906 C 34.136719 298.019531 41.425781 305.332031 51.183594 309.890625 C 52.804688 310.640625 56.328125 309.808594 57.640625 308.433594 C 75.601562 289.453125 93.359375 270.292969 111.113281 251.113281 C 112.085938 250.058594 112.632812 248.621094 113.21875 247.285156 C 114.253906 245.035156 114.65625 242.242188 116.234375 240.5 C 125.628906 230.128906 135.269531 219.984375 144.84375 209.773438 C 163.917969 189.378906 183.011719 169.003906 202.566406 148.101562 L 212.773438 158.390625 L 259.277344 112.230469 "/>
<path style=" stroke:none;fill-rule:nonzero;fill:rgb(14.118958%,21.569824%,61.569214%);fill-opacity:1;" d="M 334.394531 302.476562 L 331.417969 302.476562 C 330.488281 302.4375 329.554688 302.375 328.605469 302.316406 C 323.175781 301.992188 319.574219 298.386719 319.1875 293.039062 C 318.722656 286.738281 315.261719 283.378906 308.902344 283.378906 C 269.929688 283.335938 230.933594 283.335938 191.957031 283.378906 C 185.804688 283.378906 182.320312 286.820312 181.894531 292.898438 C 181.53125 298.101562 178.351562 301.566406 173.351562 302.234375 C 173.007812 302.273438 172.644531 302.316406 172.257812 302.335938 C 169.324219 302.476562 166.347656 302.375 163.390625 302.519531 C 158.125 303.652344 154.015625 308.148438 153.265625 313.515625 C 153.1875 314.125 153.144531 314.710938 153.144531 315.339844 L 153.144531 317.851562 C 153.144531 318.152344 153.144531 318.4375 153.167969 318.742188 C 153.613281 325.425781 159.179688 330.710938 165.980469 330.710938 L 334.394531 330.710938 C 341.5 330.710938 347.25 324.960938 347.25 317.851562 L 347.25 315.339844 C 347.25 308.230469 341.5 302.476562 334.394531 302.476562 "/>
</g>
</svg>
